<svg width="40" height="40" viewBox="0 0 40 40" fill="none" xmlns="http://www.w3.org/2000/svg">
  <!-- Database cylinder -->
  <g stroke="#3574F0" stroke-width="2.4" fill="none" stroke-linejoin="round">
    <path d="M9 10 C9 7.2 13.9 5 20 5 C26.1 5 31 7.2 31 10 L31 30 C31 32.8 26.1 35 20 35 C13.9 35 9 32.8 9 30 Z"/>
    <path d="M9 10 C9 12.8 13.9 15 20 15 C26.1 15 31 12.8 31 10"/>
    <path d="M9 20 C9 22.8 13.9 25 20 25 C26.1 25 31 22.8 31 20"/>
  </g>
  <!-- Lightning bolt -->
  <path d="M22 8 L14.5 21 L19 21 L17 32 L26 18 L21 18 Z" fill="#F2C55C" stroke="#E8A33D" stroke-width="1" stroke-linejoin="round"/>
</svg>
